<svg version="1.0" xmlns="http://www.w3.org/2000/svg" width="100%" height="100%"
     viewBox="0 0 340 250" preserveAspectRatio="xMidYMid meet" color-interpolation-filters="sRGB" style="margin: auto;">

    <rect x="0" y="0" width="100%" height="100%" fill="none"></rect>

    <g fill="#fff" transform="translate(47.95,94.78)">
        <g transform="translate(0,0)">
            <rect fill="none" stroke-width="2" x="0" y="0" width="60" height="60.43"></rect>
            <g>
                <path fill="#000000" fill-rule="evenodd" clip-rule="evenodd"
                      d="M27.751,67.15l-0.001-4.54l-16.454,0.033c-3.027,0.017-5.475-2.431-5.478-5.47V21.941c0.003-3.014,2.451-5.462,5.453-5.462c1.313,0,2.521,0.469,3.441,1.225l15.019,15.069c1.434,1.484,2.331,3.479,2.318,5.568l-0.033,20.008l4.595,0.026L36.61,42.428c0.011-2.975,2.459-5.423,5.51-5.43l16.99,0.028v-4.742l-19.718,0.03c-2.173,0-4.168-0.897-5.582-2.264l-15.39-15.078c-1.075-0.938-1.807-2.414-1.807-4.055c0-3.002,2.448-5.45,5.526-5.415h35.67c3.099-0.035,5.548,2.413,5.544,5.212l0.024,17.276l4.386,0.056l-0.01-11.806c-0.002-3.042,2.519-5.49,5.442-5.49c1.37,0,2.638,0.538,3.672,1.435l10.798,10.549c0.974,0.952,1.913,2.361,1.913,4.096c0,3.002-2.448,5.457-5.33,5.467L72.085,32.34v4.658l16.678-0.037c2.984-0.007,5.433,2.419,5.418,5.451L94.17,78.11c-0.001,3.088-2.445,5.537-5.447,5.537c-1.595,0-2.99-0.732-3.995-1.735l-14.585-14.56c-1.447-1.444-2.376-3.411-2.377-5.455l-0.004-20.661l-4.414,0.084l0.016,15.931c0.015,2.96-2.433,5.4-5.411,5.392l-17.076-0.047l0.004,4.596l19.44-0.016c2.225-0.002,4.206,0.933,5.57,2.301l15.985,16.035c0.868,0.87,1.242,2.163,1.242,3.476c0,3.002-2.448,5.45-5.546,5.471l-35.508,0.041c-3.102,0.02-5.55-2.428-5.507-5.539l0.068-17.508l-4.598,0.029l0.023,11.997c0.013,3.031-2.435,5.479-5.437,5.479c-1.407,0-2.692-0.538-3.642-1.401l-11.506-11.45c-0.76-0.919-1.215-2.126-1.187-3.44c0.063-3.002,2.448-5.45,5.331-5.482l12.135-0.032M27.722,38.6c-0.029-1.116-0.492-2.146-1.173-2.829L12.096,21.133c-0.217-0.23-0.506-0.36-0.824-0.36c-0.637,0-1.156,0.519-1.163,1.258v35.089c0.008,0.726,0.527,1.245,1.213,1.233l16.429-0.032L27.722,38.6zM57.901,58.354l-16.997-0.009L40.9,42.47c0.016-0.652,0.535-1.171,1.199-1.183l16.983,0.033l-0.007,15.87C59.086,57.847,58.566,58.354,57.901,58.354zM78.443,88.126L63.137,72.745c-0.709-0.712-1.703-1.255-2.816-1.257l-19.44-0.034l-0.035,17.565c-0.039,0.688,0.481,1.207,1.101,1.192l35.763-0.041c0.594-0.025,1.113-0.544,1.113-1.181C78.823,88.67,78.695,88.379,78.443,88.126zM36.584,62.61l-0.005,4.515l-4.553,0.053l0.017-4.515L36.584,62.61zM27.76,83.419l0.01-11.91l-12.062-0.013c-0.617,0.014-1.136,0.533-1.136,1.17c0,0.318,0.13,0.607,0.33,0.829L25.599,84.12c0.263,0.34,0.615,0.543,1.013,0.543C27.249,84.662,27.768,84.143,27.76,83.419zM59.063,10.761l0.019,17.284l-19.526-0.021c-1.164-0.004-2.194-0.467-2.942-1.164L21.308,11.77c-0.199-0.104-0.402-0.456-0.402-0.854c0-0.637,0.519-1.156,1.158-1.125h35.88C58.542,9.76,59.062,10.279,59.063,10.761zM67.763,36.998l0.028-4.63l-4.414-0.056v4.658L67.763,36.998zM84.931,25.999L74.106,15.276c-0.162-0.252-0.514-0.455-0.912-0.455c-0.637,0-1.156,0.519-1.152,1.203l0.043,12.021l12.037-0.038c0.642-0.022,1.161-0.541,1.161-1.178C85.284,26.511,85.154,26.222,84.931,25.999zM89.901,42.381c0-0.637-0.519-1.156-1.247-1.131l-16.597,0.014l-0.004,20.39c0,0.834,0.51,1.821,1.194,2.514l14.571,14.741c0.201,0.203,0.507,0.443,0.904,0.443c0.637,0,1.156-0.519,1.157-1.168l0.001-35.906"></path>
            </g>
        </g>
        <g transform="translate(67,18.7)">
            <path d="M20-11.52Q22.86-13.37 22.86-16.77L22.86-16.77Q22.86-19.35 21.02-21.2L21.02-21.2Q19.19-23.02 16.6-23.02L16.6-23.02 2.46-23.02Q2.04-23.02 1.74-22.74L1.74-22.74Q1.45-22.43 1.45-22.01L1.45-22.01Q1.45-21.6 1.74-21.31L1.74-21.31Q2.04-21.02 2.46-21.02L2.46-21.02 16.6-21.02Q18.36-21.02 19.59-19.77L19.59-19.77Q20.84-18.52 20.84-16.77L20.84-16.77Q20.84-15.01 19.59-13.76L19.59-13.76Q18.36-12.52 16.6-12.52L16.6-12.52 2.46-12.52Q2.04-12.52 1.74-12.23L1.74-12.23Q1.45-11.94 1.45-11.52L1.45-11.52Q1.45-11.09 1.74-10.8L1.74-10.8Q2.04-10.51 2.46-10.51L2.46-10.51 16.6-10.51Q18.36-10.51 19.59-9.26L19.59-9.26Q20.84-8.01 20.84-6.26L20.84-6.26Q20.84-4.5 19.59-3.26L19.59-3.26Q18.36-2.03 16.6-2.03L16.6-2.03 2.46-2.03Q2.04-2.03 1.74-1.72L1.74-1.72Q1.45-1.43 1.45-1.01L1.45-1.01Q1.45-0.6 1.74-0.29L1.74-0.29Q2.04 0 2.46 0L2.46 0 16.6 0Q19.19 0 21.02-1.84L21.02-1.84Q22.86-3.67 22.86-6.26L22.86-6.26Q22.86-9.66 20-11.52L20-11.52ZM26.77 0Q26.35 0 26.05-0.29L26.05-0.29Q25.76-0.6 25.76-1.01L25.76-1.01 25.76-22.01Q25.76-22.43 26.05-22.74L26.05-22.74Q26.35-23.02 26.77-23.02L26.77-23.02Q27.18-23.02 27.47-22.74L27.47-22.74Q27.78-22.43 27.78-22.01L27.78-22.01 27.78-1.01Q27.78-0.6 27.47-0.29L27.47-0.29Q27.18 0 26.77 0L26.77 0ZM51.08 0L31.69 0Q31.27 0 30.96-0.29L30.96-0.29Q30.68-0.6 30.68-1.01L30.68-1.01 30.68-22.01Q30.68-22.43 30.96-22.74L30.96-22.74Q31.27-23.02 31.69-23.02L31.69-23.02Q32.1-23.02 32.39-22.74L32.39-22.74Q32.7-22.43 32.7-22.01L32.7-22.01 32.7-2.03 51.08-2.03Q51.49-2.03 51.78-1.72L51.78-1.72Q52.09-1.43 52.09-1.01L52.09-1.01Q52.09-0.6 51.78-0.29L51.78-0.29Q51.49 0 51.08 0L51.08 0ZM75.39 0L56 0Q55.58 0 55.27-0.29L55.27-0.29Q54.98-0.6 54.98-1.01L54.98-1.01 54.98-22.01Q54.98-22.43 55.27-22.74L55.27-22.74Q55.58-23.02 56-23.02L56-23.02Q56.41-23.02 56.7-22.74L56.7-22.74Q57.01-22.43 57.01-22.01L57.01-22.01 57.01-2.03 75.39-2.03Q75.8-2.03 76.09-1.72L76.09-1.72Q76.4-1.43 76.4-1.01L76.4-1.01Q76.4-0.6 76.09-0.29L76.09-0.29Q75.8 0 75.39 0L75.39 0ZM99.69-23.02Q99.28-23.02 98.99-22.74L98.99-22.74Q98.68-22.43 98.68-22.01L98.68-22.01 98.68-14.74Q98.68-13.82 98.03-13.17L98.03-13.17Q97.38-12.52 96.46-12.52L96.46-12.52 83.54-12.52Q82.62-12.52 81.97-13.17L81.97-13.17Q81.32-13.82 81.32-14.74L81.32-14.74 81.32-22.01Q81.32-22.43 81.01-22.74L81.01-22.74Q80.72-23.02 80.31-23.02L80.31-23.02Q79.89-23.02 79.58-22.74L79.58-22.74Q79.29-22.43 79.29-22.01L79.29-22.01 79.29-14.74Q79.29-12.99 80.54-11.76L80.54-11.76Q81.79-10.51 83.54-10.51L83.54-10.51 96.46-10.51Q97.67-10.51 98.68-11.14L98.68-11.14 98.68-4.25Q98.68-3.33 98.03-2.68L98.03-2.68Q97.38-2.03 96.46-2.03L96.46-2.03 83.54-2.03Q82.62-2.03 81.97-2.68L81.97-2.68Q81.32-3.33 81.32-4.25L81.32-4.25 81.32-5.05Q81.32-5.46 81.01-5.77L81.01-5.77Q80.72-6.06 80.31-6.06L80.31-6.06Q79.89-6.06 79.58-5.77L79.58-5.77Q79.29-5.46 79.29-5.05L79.29-5.05 79.29-4.25Q79.29-2.5 80.54-1.25L80.54-1.25Q81.79 0 83.54 0L83.54 0 96.46 0Q98.21 0 99.46-1.25L99.46-1.25Q100.71-2.5 100.71-4.25L100.71-4.25 100.71-22.01Q100.71-22.43 100.4-22.74L100.4-22.74Q100.11-23.02 99.69-23.02L99.69-23.02ZM124-12.52L105.63-12.52 105.63-21.02 124-21.02Q124.42-21.02 124.71-21.31L124.71-21.31Q125.02-21.6 125.02-22.01L125.02-22.01Q125.02-22.43 124.71-22.74L124.71-22.74Q124.42-23.02 124-23.02L124-23.02 104.61-23.02Q104.2-23.02 103.89-22.74L103.89-22.74Q103.6-22.43 103.6-22.01L103.6-22.01 103.6-1.01Q103.6-0.6 103.89-0.29L103.89-0.29Q104.2 0 104.61 0L104.61 0Q105.03 0 105.32-0.29L105.32-0.29Q105.63-0.6 105.63-1.01L105.63-1.01 105.63-10.51 124-10.51Q124.42-10.51 124.71-10.8L124.71-10.8Q125.02-11.09 125.02-11.52L125.02-11.52Q125.02-11.94 124.71-12.23L124.71-12.23Q124.42-12.52 124-12.52L124-12.52ZM148.31 0L128.92 0Q128.51 0 128.2-0.29L128.2-0.29Q127.91-0.6 127.91-1.01L127.91-1.01 127.91-22.01Q127.91-22.43 128.2-22.74L128.2-22.74Q128.51-23.02 128.92-23.02L128.92-23.02Q129.34-23.02 129.63-22.74L129.63-22.74Q129.94-22.43 129.94-22.01L129.94-22.01 129.94-2.03 148.31-2.03Q148.73-2.03 149.02-1.72L149.02-1.72Q149.32-1.43 149.32-1.01L149.32-1.01Q149.32-0.6 149.02-0.29L149.02-0.29Q148.73 0 148.31 0L148.31 0ZM153.23 0Q152.82 0 152.51-0.29L152.51-0.29Q152.22-0.6 152.22-1.01L152.22-1.01 152.22-22.01Q152.22-22.43 152.51-22.74L152.51-22.74Q152.82-23.02 153.23-23.02L153.23-23.02Q153.65-23.02 153.94-22.74L153.94-22.74Q154.24-22.43 154.24-22.01L154.24-22.01 154.24-1.01Q154.24-0.6 153.94-0.29L153.94-0.29Q153.65 0 153.23 0L153.23 0ZM177.54 0Q177.11 0 176.8-0.33L176.8-0.33 159.16-19.44 159.16-1.01Q159.16-0.6 158.86-0.29L158.86-0.29Q158.57 0 158.15 0L158.15 0Q157.74 0 157.43-0.29L157.43-0.29Q157.14-0.6 157.14-1.01L157.14-1.01 157.14-22.01Q157.14-22.7 157.79-22.95L157.79-22.95Q158.42-23.21 158.89-22.7L158.89-22.7 176.53-3.6 176.53-22.01Q176.53-22.43 176.83-22.74L176.83-22.74Q177.12-23.02 177.54-23.02L177.54-23.02Q177.96-23.02 178.25-22.74L178.25-22.74Q178.55-22.43 178.55-22.01L178.55-22.01 178.55-1.01Q178.55-0.33 177.9-0.07L177.9-0.07Q177.74 0 177.54 0L177.54 0Z"
                  transform="translate(-1.45, 23.04)"></path>
        </g>
    </g>
</svg>
