<svg xmlns="http://www.w3.org/2000/svg" xmlns:xlink="http://www.w3.org/1999/xlink" preserveAspectRatio="xMidYMid meet"
     version="1.0" viewBox="-0.2 0.0 248.0 210.6" zoomAndPan="magnify" style="fill: rgb(0, 0, 0);">
    <linearGradient xmlns:xlink="http://www.w3.org/1999/xlink" gradientUnits="userSpaceOnUse" id="__id9_s5s9upyedy"
                    x1="123.907" x2="123.907" y1="210.558"
                    y2="0">
        <stop offset=".444" style="stop-color: rgb(32, 32, 32);"/>
        <stop offset="1" style="stop-color: rgb(2, 2, 2);"/>
    </linearGradient>
    <path d="M247.8,0v124.2c0,3.9-3.1,7-7,7s-7-3.1-7-7V93.5c0,2.3-1.9,4.2-4.2,4.2c-2.3,0-4.2-1.9-4.2-4.2v42.7 c0,3.7-3,6.7-6.7,6.7l0,0c-3.7,0-6.7-3-6.7-6.7v28.2c0,4.5-3.6,8.1-8.1,8.1s-8.1-3.6-8.1-8.1v-38.5c0,2.9-2.4,5.3-5.3,5.3 c-2.9,0-5.3-2.4-5.3-5.3v36c0,1.8-1.5,3.3-3.3,3.3c-1.8,0-3.3-1.5-3.3-3.3V134c0,6.2-5,11.2-11.2,11.2s-11.2-5-11.2-11.2v-26 c0,2.3-1.9,4.2-4.2,4.2s-4.2-1.9-4.2-4.2v47.7c0,3.1-2.5,5.6-5.6,5.6s-5.6-2.5-5.6-5.6v-17.3c0,3.7-3,6.7-6.7,6.7 c-3.7,0-6.7-3-6.7-6.7v-16.7c0,3.4-2.7,6.1-6.1,6.1s-6.1-2.7-6.1-6.1V94c0,2-1.6,3.6-3.6,3.6s-3.6-1.6-3.6-3.6v42.1 c0,3.7-3,6.7-6.7,6.7c-3.7,0-6.7-3-6.7-6.7v37.1c0,4.5-3.6,8.1-8.1,8.1l0,0c-4.5,0-8.1-3.6-8.1-8.1v-47.4c0,2.9-2.4,5.3-5.3,5.3 c-2.9,0-5.3-2.4-5.3-5.3v34.9c0,2.5-2,4.5-4.5,4.5s-4.5-2-4.5-4.5v-25.4c0,5.4-4.4,9.8-9.8,9.8l0,0c-5.4,0-9.8-4.4-9.8-9.8V103 c0,2.6-2.1,4.7-4.7,4.7c-2.6,0-4.7-2.1-4.7-4.7v62.5c0,3.9-3.1,7-7,7c-3.9,0-7-3.1-7-7V122c0,3.2-2.6,5.9-5.9,5.9 c-3.2,0-5.9-2.6-5.9-5.9V0h11.7h14h9.5h19.5h8.9h10.6h16.2h13.4h7.3h12.3h13.4h11.2h8.4h22.3h6.7h10.6h16.2h13.4h8.4H247.8z M20.1,185.9c-3.1,0-5.6,2.5-5.6,5.6s2.5,5.6,5.6,5.6s5.6-2.5,5.6-5.6S23.2,185.9,20.1,185.9z M59.2,175.8c-2.5,0-4.5,2-4.5,4.5 c0,2.5,2,4.5,4.5,4.5s4.5-2,4.5-4.5C63.6,177.8,61.6,175.8,59.2,175.8z M78.5,191.4c-5.3,0-9.6,4.3-9.6,9.6s4.3,9.6,9.6,9.6 c5.3,0,9.6-4.3,9.6-9.6S83.8,191.4,78.5,191.4z M117.8,147.9c-3.7,0-6.7,3-6.7,6.7c0,3.7,3,6.7,6.7,6.7s6.7-3,6.7-6.7 C124.5,150.9,121.5,147.9,117.8,147.9z M140.1,168c-3.4,0-6.1,2.7-6.1,6.1s2.7,6.1,6.1,6.1s6.1-2.7,6.1-6.1S143.5,168,140.1,168z M202.3,178c-5.2,0-9.5,4.2-9.5,9.5c0,5.2,4.2,9.5,9.5,9.5c5.2,0,9.5-4.2,9.5-9.5C211.7,182.3,207.5,178,202.3,178z M228.8,154.6 c-1.8,0-3.3,1.5-3.3,3.3c0,1.8,1.5,3.3,3.3,3.3s3.3-1.5,3.3-3.3C232.2,156.1,230.7,154.6,228.8,154.6z"
          style="fill:"/>
</svg>