<?xml version="1.0" encoding="UTF-8"?>
<svg xmlns="http://www.w3.org/2000/svg" width="624" height="207" viewBox="0 0 624 207">
    <path d="M38.5,21.3c-1.3,0.7 -1.5,7.5 -1.5,47 0.1,25.4 0.5,50.5 0.9,55.7 1,10.4 3.4,19.2 7.2,26 0.4,0.8 1.8,3.5 3,5.9 1.2,2.5 5.9,8.2 10.3,12.8 6.4,6.5 10,9.2 16.9,12.8 9,4.7 12.6,5.7 25.2,7.6 20.3,2.9 42.5,-4.5 57.4,-19.2 12.7,-12.5 19.3,-26.5 21.1,-44.6 1.5,-15 1.3,-102.6 -0.2,-104.1 -0.8,-0.8 -6.6,-1.2 -19.4,-1.2 -15.7,-0 -18.3,0.2 -18.8,1.6 -0.3,0.9 -0.6,23.6 -0.6,50.6 0,51.5 -0.2,54.3 -4.7,63.2 -6.4,12.6 -23.7,18.8 -37.6,13.6 -6.2,-2.3 -13.5,-8.5 -16,-13.5 -4.5,-9.1 -4.7,-11.8 -4.7,-63.7 0,-27.1 -0.4,-49.9 -0.9,-50.6 -0.7,-1.1 -4.5,-1.3 -18.5,-1 -9.7,0.1 -18.3,0.7 -19.1,1.1z" fill="#3e8717" />
    <path d="M225.7,21.2c-7.1,0.5 -11.1,1.3 -14.5,3 -9.1,4.4 -20.6,18.6 -17,20.9 0.7,0.5 8.2,0.9 16.6,0.9 14.9,-0 15.4,0.1 18.7,2.6 1.9,1.4 3.7,3.8 4,5.5 0.4,1.8 1.4,3.1 2.8,3.4 1.2,0.3 11.7,0.4 23.2,0.3l21,-0.3 0,-18.5 0,-18.5 -22.5,-0c-12.4,-0 -26.9,0.3 -32.3,0.7z" fill="#3e8717" />
    <path d="M294.5,22.2c-0.3,1.3 -0.4,38.7 -0.3,83.3l0.3,81 19.7,0.3 19.8,0.2 0.2,-64.2 0.3,-64.3 14.1,-0.3c15.2,-0.3 19.6,0.8 25.5,6 9.7,8.7 10.4,25.2 1.3,34.3 -4.9,4.8 -10,6.7 -20.4,7.5l-7.5,0.5 -0.3,16.3 -0.3,16.3 5.3,8.7c2.8,4.8 5.5,8.8 6,9 0.4,0.2 0.8,0.9 0.8,1.6 0,0.8 0.9,2.4 1.9,3.7 1,1.4 2.7,3.9 3.7,5.6 1.1,1.7 4.1,6.8 6.7,11.2l4.9,8.1 22.9,-0c22,-0 22.9,-0.1 22.9,-1.9 0,-1.1 -0.6,-2.6 -1.3,-3.3 -1.3,-1.3 -11.1,-16.9 -13.6,-21.6 -0.8,-1.5 -1.7,-2.9 -2.1,-3.2 -0.4,-0.3 -1.7,-2.3 -2.9,-4.5 -1.2,-2.2 -3.9,-6.7 -6.1,-10 -2.1,-3.3 -3.9,-6.5 -3.9,-7.1 -0.1,-0.6 1.8,-2.4 4.2,-4 6.6,-4.4 15.4,-14.3 18.6,-20.9 4.4,-9.1 6.3,-17.6 6.2,-28.8 -0.2,-21.5 -9.8,-39.8 -26.9,-51 -14.6,-9.5 -22.1,-10.7 -65.4,-10.7l-33.8,-0 -0.5,2.2z" fill="#3e8717" />
    <path d="M488,25.3c0,0.8 1,2.2 2.1,3.3 2.1,1.9 7.9,10.3 10.9,15.9 0.9,1.6 4,7.5 7,13 2.9,5.5 5.9,10.9 6.7,12 2,3 1.6,4.6 -1.9,8.3l-3.3,3.3 18.2,-0.3c21.3,-0.4 20.7,-0.1 24.2,-11.3 2.1,-6.6 3.7,-11.1 6.6,-18 1.9,-4.5 2.7,-7.5 2,-7.5 -0.3,-0 -2.4,1.2 -4.6,2.6 -4.9,3 -5.3,2.8 -11.5,-6.6 -5.6,-8.6 -11,-13.6 -15.9,-14.9 -2.2,-0.6 -12.2,-1.1 -22.2,-1.1 -14.7,-0 -18.3,0.3 -18.3,1.3z" fill="#3e8717" />
    <path d="M471.2,32.6c-2.3,1.9 -4.2,4 -4.2,4.6 0,0.7 -0.6,1.9 -1.4,2.7 -0.7,0.9 -3.2,5.1 -5.5,9.3 -2.2,4.3 -5.9,11.1 -8.1,15.2 -2.2,4.1 -3.7,8.1 -3.4,8.9 0.3,0.9 8.2,5.4 17.6,10.1 19.5,9.8 18.7,9.8 23.4,0.1 1.4,-2.7 3.3,-6.4 4.3,-8.1 4.2,-7 7.1,-13 7.1,-14.6 0,-5.9 -14.1,-27.2 -20,-30.3 -4.1,-2.1 -5.1,-1.9 -9.8,2.1z" fill="#3e8717" />
    <path d="M191.7,70.2c-1.6,1.2 -1.7,5.6 -1.5,58.8l0.3,57.5 19.5,-0 19.5,-0 0.3,-27.9c0.1,-18.6 0.6,-28.4 1.3,-29.3 0.9,-1 6.3,-1.3 24.9,-1.3 19,-0 24,-0.3 24.9,-1.4 0.8,-0.9 1.1,-6.6 0.9,-18.2l-0.3,-16.9 -24.4,-0.3c-16,-0.1 -24.9,-0.6 -25.8,-1.3 -0.9,-0.8 -1.3,-3.8 -1.3,-9.8 0,-5.4 -0.5,-9.2 -1.2,-9.9 -1.7,-1.7 -34.8,-1.7 -37.1,-0z" fill="#3e8717" />
    <path d="M563.8,82.5c-2,1.4 -3.9,2.5 -4.2,2.5 -0.9,-0 -22.9,13.1 -24.8,14.8 -1.6,1.3 -1.4,2.1 3.4,11.1 2.8,5.3 6.5,12.2 8.2,15.5 1.7,3.2 4.3,7.2 5.8,8.7 2.4,2.7 3.2,2.9 9.9,2.9 12.9,-0 25.3,-3.1 28.6,-7.2 3.4,-4.2 2.3,-12.3 -2.9,-20.3 -1.7,-2.8 -4.1,-6.8 -5.3,-9 -1.2,-2.2 -3.1,-5.6 -4.3,-7.5 -1.1,-1.9 -3.3,-5.9 -4.8,-8.8 -1.6,-3 -3.4,-5.2 -4.3,-5.2 -0.9,-0 -3.3,1.1 -5.3,2.5z" fill="#3e8717" />
    <path d="M451,94.6c-10.6,0.7 -24,2.7 -24,3.5 0,0.5 1,1.3 2.3,1.8 1.3,0.5 2.9,1.6 3.7,2.6 1.2,1.4 1.1,2 -0.2,4.3 -6.7,11.3 -8.3,16.1 -8.3,24.7 0,7.5 0.3,8.4 3.8,14.5 9.1,15.6 15.6,25.5 16.9,25.5 0.7,-0 1.9,-2 2.6,-4.5 1.8,-6.2 6.5,-15.5 14.6,-29 3.7,-6.3 7.2,-12.5 7.7,-13.8 0.9,-2.2 1.3,-2.4 5.4,-1.7 2.5,0.3 4.5,0.3 4.5,-0.2 0,-0.4 -2.1,-4.4 -4.8,-8.8 -2.6,-4.5 -5.8,-10.3 -7.2,-13 -1.4,-2.8 -2.9,-5.3 -3.5,-5.7 -1,-0.7 -4.1,-0.8 -13.5,-0.2z" fill="#3e8717" />
    <path d="M520.6,147.6c-8.7,14.7 -10.1,18.9 -7.1,21.4 0.8,0.7 1.5,1.8 1.5,2.5 0,0.6 1.4,3.1 3,5.3 1.7,2.3 3,4.4 3,4.6 0,0.3 1.4,2.5 3,4.9 1.7,2.5 3,4.9 3,5.4 0,0.5 1.1,2 2.5,3.3l2.5,2.3 0,-4c0,-7.2 0.1,-7.3 10.4,-7.3 9.4,-0 16.5,-1.6 21.1,-4.6 3.3,-2.2 6,-6.3 13.9,-21.8 3.5,-6.7 6.9,-13.1 7.6,-14.3 2.1,-3.3 0.5,-3.9 -4.9,-2 -4,1.4 -8.5,1.7 -25.4,1.7 -23,-0 -22.6,0.1 -23.5,-7.5 -0.2,-2.5 -0.8,-4.5 -1.2,-4.5 -0.4,-0 -4.6,6.6 -9.4,14.6z" fill="#3e8717" />
    <path d="M466.8,144.7c-2.3,2.6 -9.8,17 -12,22.8 -2.3,6.3 -2.3,7.7 0.2,12.4 3.2,6.4 6,7.1 27.2,7.1 13,-0 18.8,-0.4 19.6,-1.2 1.3,-1.3 1.8,-36.1 0.6,-40.6 -0.6,-2.2 -0.9,-2.2 -17.4,-2.2 -14.6,-0 -16.9,0.2 -18.2,1.7z" fill="#3e8717" />
</svg>
