<?xml version="1.0" standalone="no"?>
<!DOCTYPE svg PUBLIC "-//W3C//DTD SVG 20010904//EN"
        "http://www.w3.org/TR/2001/REC-SVG-20010904/DTD/svg10.dtd">
<svg version="1.0" xmlns="http://www.w3.org/2000/svg"
     width="256.000000pt" height="228.000000pt" viewBox="0 0 256.000000 228.000000"
     preserveAspectRatio="xMidYMid meet">

    <g transform="translate(0.000000,228.000000) scale(0.100000,-0.100000)"
       fill="#000000" stroke="none">
        <defs>
            <linearGradient id="grad1" x1="0%" y1="0%" x2="100%" y2="100%">
                <stop offset="0%" style="stop-color:rgb(123,31,162);stop-opacity:1"/>
                <stop offset="100%" style="stop-color:rgb(244,143,177);stop-opacity:1"/>
            </linearGradient>
        </defs>
        <path
                fill="url(#grad1)"

                d="M110 1139 l0 -1031 348 5 c292 3 356 7 407 21 234 69 319 195 332
496 14 335 -80 515 -304 583 -75 23 -86 31 -54 42 32 10 111 102 141 166 38
82 54 182 47 299 -13 206 -85 333 -223 397 -96 44 -169 53 -441 53 l-253 0 0
-1031z m503 911 c181 -26 267 -117 286 -302 26 -264 -53 -407 -255 -458 -61
-16 -111 -20 -241 -20 l-163 0 0 395 0 395 153 0 c83 0 183 -5 220 -10z m113
-921 c89 -12 140 -30 204 -71 93 -60 130 -146 137 -318 10 -224 -27 -361 -115
-427 -82 -62 -194 -79 -519 -82 l-193 -2 0 456 0 455 204 0 c113 0 239 -5 282
-11z"/>
        <path fill="url(#grad1)" d="M1490 1140 l0 -1030 65 0 65 0 0 520 0 520 370 0 370 0 0 65 0 65
-370 0 -370 0 0 385 0 385 415 0 415 0 0 60 0 60 -480 0 -480 0 0 -1030z"/>
    </g>
</svg>
